<svg width="336" height="67" viewBox="0 0 336 67" fill="none" xmlns="http://www.w3.org/2000/svg">
<path d="M199.17 44.52C200.73 44.52 202.08 44.16 203.22 43.43C204.4 42.71 205.31 41.7 205.96 40.4C206.65 39.11 206.99 37.62 206.99 35.95C206.99 34.28 206.65 32.81 205.96 31.55C205.31 30.26 204.4 29.25 203.22 28.52C202.08 27.76 200.73 27.38 199.17 27.38C197.61 27.38 196.24 27.76 195.06 28.52C193.88 29.24 192.95 30.25 192.26 31.55C191.61 32.81 191.29 34.27 191.29 35.95C191.29 37.63 191.61 39.11 192.26 40.4C192.95 41.69 193.88 42.7 195.06 43.43C196.24 44.16 197.61 44.52 199.17 44.52ZM199.17 52.23C196.09 52.23 193.27 51.53 190.72 50.12C188.21 48.71 186.19 46.79 184.67 44.35C183.19 41.88 182.44 39.08 182.44 35.95C182.44 32.82 183.18 29.99 184.67 27.55C186.19 25.11 188.21 23.19 190.72 21.78C193.27 20.37 196.09 19.67 199.17 19.67C202.25 19.67 205.05 20.37 207.57 21.78C210.08 23.19 212.08 25.11 213.57 27.55C215.09 29.99 215.85 32.79 215.85 35.95C215.85 39.11 215.09 41.87 213.57 44.35C212.09 46.79 210.09 48.71 207.57 50.12C205.05 51.53 202.26 52.23 199.17 52.23Z" fill="white"/>
<path d="M163.43 44.5199C165.03 44.5199 166.44 44.1599 167.66 43.4299C168.88 42.7099 169.83 41.6999 170.52 40.3999C171.21 39.1099 171.55 37.6199 171.55 35.9499C171.55 34.2799 171.21 32.8099 170.52 31.5499C169.83 30.2599 168.88 29.2499 167.66 28.5199C166.44 27.7599 165.03 27.3799 163.43 27.3799C161.83 27.3799 160.54 27.7399 159.32 28.4699C158.14 29.1899 157.21 30.1999 156.52 31.4999C155.87 32.7899 155.55 34.2799 155.55 35.9499C155.55 37.6199 155.87 39.1099 156.52 40.3999C157.21 41.6899 158.14 42.6999 159.32 43.4299C160.54 44.1499 161.91 44.5199 163.43 44.5199ZM164.46 52.2299C162.33 52.2299 160.35 51.8499 158.52 51.0899C156.73 50.2899 155.28 49.1299 154.18 47.6099L154.98 45.8399V51.5499H146.98V8.31995H155.55V26.3099L154.24 24.5999C155.27 23.0399 156.66 21.8399 158.41 20.9999C160.2 20.1199 162.24 19.6899 164.52 19.6899C167.49 19.6899 170.17 20.4099 172.57 21.8599C174.97 23.3099 176.87 25.2699 178.28 27.7399C179.69 30.1799 180.39 32.9199 180.39 35.9599C180.39 38.9999 179.69 41.7099 178.28 44.1799C176.91 46.6499 175.02 48.6199 172.63 50.0599C170.23 51.5099 167.51 52.2299 164.46 52.2299Z" fill="white"/>
<path d="M114.14 51.5499V20.3699H122.14V26.5399L121.68 25.1699C122.4 23.2999 123.56 21.9299 125.16 21.0599C126.8 20.1499 128.7 19.6899 130.87 19.6899C133.23 19.6899 135.29 20.1799 137.04 21.1699C138.83 22.1599 140.22 23.5499 141.21 25.3399C142.2 27.0899 142.69 29.1499 142.69 31.5099V51.5599H134.12V33.3399C134.12 32.1199 133.87 31.0699 133.38 30.1999C132.92 29.3199 132.26 28.6399 131.38 28.1399C130.54 27.6499 129.55 27.3999 128.41 27.3999C127.27 27.3999 126.32 27.6499 125.44 28.1399C124.56 28.6299 123.88 29.3199 123.38 30.1999C122.92 31.0799 122.69 32.1199 122.69 33.3399V51.5599H114.12L114.14 51.5499Z" fill="white"/>
<path d="M92.4298 52.23C89.0798 52.23 86.0898 51.53 83.4598 50.12C80.8298 48.71 78.7598 46.79 77.2398 44.35C75.7598 41.88 75.0098 39.08 75.0098 35.95V9H83.8598V35.38C83.8598 37.06 84.2198 38.58 84.9498 39.95C85.7098 41.28 86.7398 42.33 88.0298 43.09C89.3198 43.85 90.7898 44.23 92.4298 44.23C94.0698 44.23 95.5698 43.85 96.8298 43.09C98.1198 42.33 99.1298 41.28 99.8598 39.95C100.62 38.58 101 37.06 101 35.38V9H109.85V35.96C109.85 39.08 109.09 41.88 107.57 44.36C106.09 46.8 104.03 48.72 101.4 50.13C98.7698 51.54 95.7798 52.24 92.4298 52.24V52.23Z" fill="white"/>
<path d="M313.07 42.2401C314.52 42.2401 315.77 41.9401 316.84 41.3301C317.91 40.7201 318.72 39.8601 319.3 38.7601C319.91 37.6601 320.21 36.3601 320.21 34.8801C320.21 33.4001 319.91 32.1001 319.3 31.0001C318.69 29.8601 317.85 28.9801 316.79 28.3701C315.72 27.7201 314.49 27.4001 313.08 27.4001C311.67 27.4001 310.34 27.7201 309.2 28.3701C308.1 28.9801 307.22 29.8501 306.57 31.0001C305.96 32.1001 305.66 33.4001 305.66 34.8801C305.66 36.3601 305.96 37.6001 306.57 38.7101C307.22 39.8101 308.09 40.6901 309.2 41.3401C310.34 41.9501 311.64 42.2501 313.08 42.2501L313.07 42.2401ZM313.36 64.1101C310.96 64.1101 308.73 63.7101 306.68 62.9101C304.63 62.1101 302.85 60.9901 301.37 59.5401C299.92 58.1301 298.88 56.4601 298.23 54.5101L306.17 51.7101C306.59 53.1601 307.45 54.3001 308.74 55.1401C310.03 55.9801 311.58 56.4001 313.37 56.4001C314.78 56.4001 316 56.1301 317.03 55.6001C318.06 55.1101 318.84 54.3601 319.37 53.3701C319.94 52.3801 320.23 51.2201 320.23 49.8901V42.7501L321.89 44.8101C320.82 46.5601 319.45 47.8701 317.78 48.7501C316.1 49.5901 314.14 50.0101 311.9 50.0101C309.01 50.0101 306.42 49.3601 304.13 48.0701C301.85 46.7401 300.06 44.9301 298.76 42.6401C297.47 40.3201 296.82 37.6901 296.82 34.7601C296.82 31.8301 297.47 29.2401 298.76 26.9901C300.05 24.7101 301.82 22.9201 304.07 21.6201C306.32 20.3301 308.87 19.6801 311.72 19.6801C313.97 19.6801 315.93 20.1401 317.6 21.0501C319.28 21.9301 320.7 23.2801 321.88 25.1001L320.79 27.1601V20.3601H328.79V49.8901C328.79 52.6301 328.12 55.0701 326.79 57.2001C325.46 59.3701 323.63 61.0601 321.31 62.2801C319.03 63.5001 316.38 64.1101 313.37 64.1101H313.36Z" fill="white"/>
<path d="M265.58 51.5499V20.3699H273.58V26.5399L273.12 25.1699C273.84 23.2999 275 21.9299 276.6 21.0599C278.24 20.1499 280.14 19.6899 282.31 19.6899C284.67 19.6899 286.73 20.1799 288.48 21.1699C290.27 22.1599 291.66 23.5499 292.65 25.3399C293.64 27.0899 294.13 29.1499 294.13 31.5099V51.5599H285.56V33.3399C285.56 32.1199 285.31 31.0699 284.82 30.1999C284.36 29.3199 283.7 28.6399 282.82 28.1399C281.98 27.6499 280.99 27.3999 279.85 27.3999C278.71 27.3999 277.76 27.6499 276.88 28.1399C276 28.6299 275.32 29.3199 274.82 30.1999C274.36 31.0799 274.13 32.1199 274.13 33.3399V51.5599H265.56L265.58 51.5499Z" fill="white"/>
<path d="M252.46 17.57V9H261.03V17.57H252.46ZM252.46 51.55V20.37H261.03V51.55H252.46Z" fill="white"/>
<path d="M225.425 19.6869L217.286 27.8257L225.425 35.9645L233.564 27.8257L225.425 19.6869Z" fill="white"/>
<path d="M241.707 19.6852L233.568 27.824L241.707 35.9628L249.845 27.824L241.707 19.6852Z" fill="white"/>
<path d="M225.434 35.9715L217.295 44.1104L225.434 52.2492L233.573 44.1103L225.434 35.9715Z" fill="white"/>
<path d="M241.705 35.984L233.566 44.1228L241.705 52.2616L249.844 44.1228L241.705 35.984Z" fill="white"/>
<path fill-rule="evenodd" clip-rule="evenodd" d="M57.8398 24.18H53.4598L50.6998 29.01C50.2398 29.82 50.2398 30.81 50.6998 31.62L53.4598 36.45H57.8398L54.7098 30.97C54.4798 30.57 54.4798 30.07 54.7098 29.67L57.8398 24.19V24.18ZM45.9998 24.18C45.2698 24.18 44.6798 24.77 44.6798 25.5V35.14C44.6798 35.87 45.2698 36.46 45.9998 36.46H48.6298V24.19H45.9998V24.18ZM23.3798 24.18H18.9998L19.7798 25.51C20.2498 26.32 20.2598 27.31 19.7998 28.12L19.2898 29.02C18.8398 29.82 18.8398 30.8 19.2898 31.6L19.7998 32.5C20.2598 33.31 20.2498 34.31 19.7798 35.11L18.9998 36.44H23.3798L24.1598 35.11C24.6298 34.3 24.6398 33.31 24.1798 32.5L23.3098 30.95C23.0798 30.55 23.0798 30.06 23.3098 29.66L24.1798 28.11C24.6398 27.3 24.6298 26.3 24.1598 25.5L23.3798 24.17V24.18ZM12.2498 25.49C12.2498 24.76 12.8398 24.17 13.5698 24.17H16.1998V36.44H13.5698C12.8398 36.44 12.2498 35.85 12.2498 35.12V25.48V25.49ZM34.5998 40.83C32.1798 40.83 30.2198 38.87 30.2198 36.45C30.2198 35.72 29.6298 35.13 28.8998 35.13H26.7098V36.45C26.7098 40.81 30.2398 44.34 34.5998 44.34C38.9598 44.34 42.4898 40.81 42.4898 36.45V35.13H40.2998C39.5698 35.13 38.9798 35.72 38.9798 36.45C38.9798 38.87 37.0198 40.83 34.5998 40.83ZM34.5998 58.37C50.0898 58.37 62.6498 45.81 62.6498 30.32C62.6498 14.83 50.0998 2.26001 34.5998 2.26001C19.0998 2.26001 6.5498 14.82 6.5498 30.31C6.5498 45.8 19.1098 58.36 34.5998 58.36V58.37Z" fill="white"/>
</svg>
